<?xml version="1.0" encoding="UTF-8" standalone="no"?>
<svg
   width="67.733292mm"
   height="66.061401mm"
   viewBox="0 0 67.733292 66.061401"
   version="1.1"
   id="svg5"
   sodipodi:docname="github-logo.svg"
   inkscape:version="1.1.2 (0a00cf5339, 2022-02-04, custom)"
   xmlns:inkscape="http://www.inkscape.org/namespaces/inkscape"
   xmlns:sodipodi="http://sodipodi.sourceforge.net/DTD/sodipodi-0.dtd"
   xmlns="http://www.w3.org/2000/svg"
   xmlns:svg="http://www.w3.org/2000/svg">
  <sodipodi:namedview
     id="namedview6"
     pagecolor="#505050"
     bordercolor="#ffffff"
     borderopacity="1"
     inkscape:pageshadow="0"
     inkscape:pageopacity="0"
     inkscape:pagecheckerboard="1"
     inkscape:document-units="mm"
     showgrid="false"
     inkscape:zoom="0.46235269"
     inkscape:cx="130.85249"
     inkscape:cy="-17.302808"
     inkscape:window-width="1366"
     inkscape:window-height="695"
     inkscape:window-x="0"
     inkscape:window-y="0"
     inkscape:window-maximized="1"
     inkscape:current-layer="svg5" />
  <defs
     id="defs2" />
  <g
     id="layer1"
     transform="translate(-70.649507,-107.77715)">
    <path
       d="m 104.51645,107.77715 c -18.701743,0 -33.866943,15.1624 -33.866943,33.86695 0,14.9633 9.703912,27.65808 23.160285,32.13625 1.692562,0.3135 2.313954,-0.73468 2.313954,-1.62919 0,-0.80759 -0.03141,-3.47542 -0.04599,-6.30533 -9.421817,2.04868 -11.409933,-3.99586 -11.409933,-3.99586 -1.540579,-3.91454 -3.760314,-4.95543 -3.760314,-4.95543 -3.072746,-2.10196 0.231619,-2.05878 0.231619,-2.05878 3.400828,0.23891 5.191534,3.49 5.191534,3.49 3.02059,5.17752 7.922739,3.68068 9.855333,2.81533 0.303966,-2.18889 1.181654,-3.68292 2.150193,-4.52864 -7.522311,-0.85638 -15.429908,-3.76032 -15.429908,-16.73719 0,-3.6975 1.32298,-6.71865 3.489437,-9.09037 -0.351635,-0.85301 -1.510855,-4.29758 0.328081,-8.9625 0,0 2.843931,-0.91022 9.315822,3.47149 2.701483,-0.75038 5.59869,-1.12669 8.47683,-1.13959 2.87814,0.0129 5.77759,0.38921 8.48412,1.13959 6.46405,-4.38171 9.30405,-3.47149 9.30405,-3.47149 1.84343,4.66492 0.68364,8.10949 0.33201,8.9625 2.1715,2.37172 3.48551,5.39287 3.48551,9.09037 0,13.00772 -7.92274,15.87184 -15.46412,16.71027 1.21474,1.05098 2.29713,3.112 2.29713,6.27168 0,4.53144 -0.0393,8.17847 -0.0393,9.29395 0,0.90124 0.60961,1.95727 2.32629,1.6247 13.44909,-4.48321 23.14066,-17.17351 23.14066,-32.13176 0,-18.70455 -15.16295,-33.86695 -33.86639,-33.86695 z m -21.18267,48.24418 c -0.07459,0.16825 -0.339298,0.21872 -0.580451,0.10319 -0.245641,-0.11048 -0.383603,-0.33986 -0.303966,-0.50866 0.07291,-0.1733 0.338176,-0.22153 0.583255,-0.10544 0.246201,0.11049 0.386407,0.34211 0.301162,0.51091 z m 1.665877,1.48644 c -0.161516,0.14974 -0.477259,0.0802 -0.691494,-0.15647 -0.221524,-0.2361 -0.263025,-0.55185 -0.09927,-0.70383 0.166564,-0.14974 0.472773,-0.0796 0.694859,0.15647 0.221525,0.23891 0.264708,0.55241 0.0959,0.70383 z m 1.142855,1.90185 c -0.207504,0.14414 -0.546801,0.009 -0.756549,-0.29219 -0.207504,-0.30116 -0.207504,-0.66233 0.0045,-0.80702 0.210309,-0.14469 0.544559,-0.0146 0.757111,0.28434 0.206943,0.30621 0.206943,0.66738 -0.005,0.81487 z m 1.932813,2.20261 c -0.185632,0.2047 -0.581012,0.14974 -0.870396,-0.12955 -0.296115,-0.27312 -0.378556,-0.66064 -0.192363,-0.86534 0.187876,-0.20527 0.585499,-0.1475 0.877127,0.12954 0.293871,0.27256 0.383602,0.6629 0.185632,0.86535 z m 2.497972,0.74358 c -0.08188,0.26527 -0.462678,0.38585 -0.846281,0.27312 -0.383041,-0.11609 -0.633729,-0.42679 -0.556335,-0.69486 0.07964,-0.26695 0.462117,-0.39257 0.848524,-0.272 0.382481,0.11553 0.633729,0.42398 0.554092,0.69374 z m 2.842798,0.31541 c 0.0095,0.27928 -0.315743,0.5109 -0.718414,0.51595 -0.404913,0.009 -0.732434,-0.21704 -0.73692,-0.49184 0,-0.28209 0.317986,-0.51147 0.7229,-0.5182 0.40267,-0.008 0.732434,0.21648 0.732434,0.49409 z m 2.79273,-0.10706 c 0.04823,0.27256 -0.23162,0.55241 -0.631486,0.627 -0.393136,0.0718 -0.75711,-0.0965 -0.807024,-0.36677 -0.04879,-0.27929 0.236107,-0.55915 0.628682,-0.63149 0.400428,-0.0695 0.758793,0.0942 0.809828,0.37126 z"
       fill="#161614"
       id="path9"
       style="fill:#ffffff;stroke-width:0.264583" />
  </g>
</svg>
